<svg id="svg" version="1.1" viewBox="0 0 300 300" width="300" height="300" xmlns="http://www.w3.org/2000/svg">
  <g fill="#29406D" fill-rule="nonzero" stroke="none" stroke-width="1" stroke-linecap="butt" stroke-linejoin="miter" stroke-miterlimit="10" stroke-dasharray="" stroke-dashoffset="0" font-family="none" font-weight="none" font-size="none" text-anchor="none" style="mix-blend-mode: normal">
    <circle cx="150" cy="150" r="140" fill="white"/>
    <path d="M151.44125,43.9925c1.9555,0.037 12.88675,6.90225 15.49625,8.44475l24.201,14.31175c17.01025,10.06075 35.23775,20.41325 51.96175,30.788c0.07625,7.34 0.101,14.68025 0.074,22.0205c0.001,4.71175 0.16525,10.66425 -0.17925,15.24725c-2.60825,1.94 -10.28825,6.11375 -13.34625,7.8675l-25.37025,14.54575c-4.36525,2.48575 -10.35325,5.441 -14.0455,8.86175c-6.66225,6.173 -12.3985,18.8095 -8.06625,27.661c1.72925,3.53325 6.913,4.226 10.3155,2.68725c5.5655,-2.51725 10.844,-6.20375 16.251,-9.09075c11.37275,-6.694 23.0625,-12.998 34.42725,-19.68875c-0.5245,12.09675 0.45875,25.65975 -0.127,38.041c-2.26375,1.77475 -8.561,5.28725 -11.20825,6.85175l-21.94875,12.9575c-4.99075,2.658 -10.768,6.4505 -15.789,9.32875c-14.1025,8.0835 -28.14475,16.98 -42.287,24.9525c-7.421,-4.91 -17.979,-10.67325 -25.8995,-15.32325l-42.3685,-24.86425c-7.73225,-4.53325 -15.874,-9.13875 -23.48325,-13.82075c-0.3195,-5.859 -0.05375,-13.943 -0.05075,-20.01125l0.0105,-39.153l-0.00775,-31.98075c-0.001,-4.79875 -0.229,-12.68 0.152,-17.21325c3.062,-2.10525 9.864,-5.801 13.28575,-7.80675l27.59025,-16.18425l32.20625,-18.91375c5.532,-3.24875 12.60675,-7.6715 18.20575,-10.51625zM152.098,112.995c6.71475,-0.4625 9.926,-3.17075 15.344,-6.08975c11.0685,-5.9635 9.5855,-11.65575 -0.67275,-17.2855c-6.60575,-3.625 -9.62725,-5.8965 -17.557,-5.51025c-6.9405,0.61425 -9.78225,3.134 -15.61525,6.09225c-5.98075,3.0335 -11.826,8.63125 -4.1815,14.00625c6.717,4.72275 14.33,8.967 22.6825,8.787z"/>
  </g>
</svg>
